<?xml version="1.0" standalone="no"?>
<!DOCTYPE svg PUBLIC "-//W3C//DTD SVG 20010904//EN"
 "http://www.w3.org/TR/2001/REC-SVG-20010904/DTD/svg10.dtd">
<svg version="1.0" xmlns="http://www.w3.org/2000/svg"
 width="700.000000pt" height="700.000000pt" viewBox="0 0 700.000000 700.000000"
 preserveAspectRatio="xMidYMid meet">
<metadata>
Created by potrace 1.14, written by Peter Selinger 2001-2017
</metadata>
<g transform="translate(0.000000,700.000000) scale(0.100000,-0.100000)"
fill="#000000" stroke="none">
<path d="M3309 6856 c-2 -2 -49 -6 -105 -10 -55 -4 -112 -9 -125 -12 -13 -2
-43 -7 -66 -9 -51 -6 -215 -38 -303 -60 -36 -9 -76 -18 -90 -21 -14 -3 -97
-29 -185 -59 -262 -87 -449 -175 -723 -340 -108 -65 -348 -245 -452 -339 -70
-64 -241 -237 -287 -292 -23 -27 -54 -62 -68 -79 -119 -137 -309 -430 -411
-635 -167 -335 -289 -736 -328 -1080 -28 -235 -28 -741 -1 -823 2 -7 6 -37 9
-67 3 -30 14 -102 26 -160 12 -58 23 -116 26 -130 26 -130 113 -397 175 -537
11 -24 19 -46 19 -49 0 -10 129 -264 173 -339 280 -484 695 -905 1176 -1194
100 -60 293 -161 376 -196 217 -93 438 -165 630 -206 33 -7 65 -13 70 -15 92
-20 251 -42 375 -52 165 -14 577 -6 690 12 14 3 45 7 70 10 62 8 209 36 315
61 105 24 354 102 430 135 11 5 49 21 85 36 93 38 303 143 384 192 37 23 70
42 72 42 6 0 156 103 239 165 205 151 437 372 591 564 10 13 24 28 29 35 54
59 212 289 285 416 135 232 264 542 333 800 22 82 56 230 62 275 3 22 8 46 10
52 2 7 7 43 11 80 3 38 8 71 10 74 9 16 19 216 19 404 0 189 -7 325 -20 410
-7 42 -14 93 -21 140 -33 227 -120 518 -239 800 -26 62 -132 271 -160 315 -14
22 -25 42 -25 45 0 3 -36 60 -81 127 -114 170 -214 300 -315 408 -28 30 -64
70 -80 88 -52 58 -269 251 -370 327 -55 41 -104 79 -111 85 -6 5 -49 34 -95
63 -301 193 -629 342 -948 428 -131 35 -325 74 -445 89 -49 6 -103 13 -120 16
-35 6 -510 15 -516 10z"/>
</g>
</svg>
